HIERARCHY
ROOT root
{
	OFFSET 0.000000 0.000000 0.000000
	CHANNELS 6 Xposition Yposition Zposition Zrotation Yrotation Xrotation
	JOINT lhip
	{
		OFFSET 0.058581 -0.082280 -0.017664
		CHANNELS 3 Zrotation Yrotation Xrotation
		JOINT lknee
		{
			OFFSET 0.043451 -0.386469 0.008037
			CHANNELS 3 Zrotation Yrotation Xrotation
			JOINT lankle
			{
				OFFSET -0.014790 -0.426874 -0.037428
				CHANNELS 3 Zrotation Yrotation Xrotation
				JOINT ltoe
				{
					OFFSET 0.041054 -0.060286 0.122042
					CHANNELS 3 Zrotation Yrotation Xrotation
					End Site
					{
						OFFSET 0.000000 0.000000 0.000000
					}
				}
			}
		}
	}
	JOINT rhip
	{
		OFFSET -0.060310 -0.090513 -0.013543
		CHANNELS 3 Zrotation Yrotation Xrotation
		JOINT rknee
		{
			OFFSET -0.043257 -0.383688 -0.004843
			CHANNELS 3 Zrotation Yrotation Xrotation
			JOINT rankle
			{
				OFFSET 0.019056 -0.420046 -0.034562
				CHANNELS 3 Zrotation Yrotation Xrotation
				JOINT rtoe
				{
					OFFSET -0.034840 -0.062106 0.130323
					CHANNELS 3 Zrotation Yrotation Xrotation
					End Site
					{
						OFFSET 0.000000 0.000000 0.000000
					}
				}
			}
		}
	}
	JOINT lowerback
	{
		OFFSET 0.004439 0.124404 -0.038385
		CHANNELS 3 Zrotation Yrotation Xrotation
		JOINT upperback
		{
			OFFSET 0.004488 0.137956 0.026820
			CHANNELS 3 Zrotation Yrotation Xrotation
			JOINT chest
			{
				OFFSET -0.002265 0.056032 0.002855
				CHANNELS 3 Zrotation Yrotation Xrotation
				JOINT lowerneck
				{
					OFFSET -0.013390 0.211636 -0.033468
					CHANNELS 3 Zrotation Yrotation Xrotation
					JOINT upperneck
					{
						OFFSET 0.010113 0.088937 0.050410
						CHANNELS 3 Zrotation Yrotation Xrotation
						End Site
						{
							OFFSET 0.000000 0.000000 0.000000
						}
					}
				}
				JOINT lclavicle
				{
					OFFSET 0.071702 0.114000 -0.018898
					CHANNELS 3 Zrotation Yrotation Xrotation
					JOINT lshoulder
					{
						OFFSET 0.122921 0.045205 -0.019046
						CHANNELS 3 Zrotation Yrotation Xrotation
						JOINT lelbow
						{
							OFFSET 0.255332 -0.015649 -0.022946
							CHANNELS 3 Zrotation Yrotation Xrotation
							JOINT lwrist
							{
								OFFSET 0.265709 0.012698 -0.007375
								CHANNELS 3 Zrotation Yrotation Xrotation
								End Site
								{
									OFFSET 0.000000 0.000000 0.000000
								}
							}
						}
					}
				}
				JOINT rclavicle
				{
					OFFSET -0.082954 0.112472 -0.023707
					CHANNELS 3 Zrotation Yrotation Xrotation
					JOINT rshoulder
					{
						OFFSET -0.113228 0.046853 -0.008472
						CHANNELS 3 Zrotation Yrotation Xrotation
						JOINT relbow
						{
							OFFSET -0.260127 -0.014369 -0.031269
							CHANNELS 3 Zrotation Yrotation Xrotation
							JOINT rwrist
							{
								OFFSET -0.269108 0.006794 -0.006027
								CHANNELS 3 Zrotation Yrotation Xrotation
								End Site
								{
									OFFSET 0.000000 0.000000 0.000000
								}
							}
						}
					}
				}
			}
		}
	}
}
MOTION
Frames: 10
Frame Time: 0.033333
1.159315 1.152325 0.991547 -85.431178 2.740580 84.746278 0.044288 -1.093371 7.967127 -2.637640 -17.403211 3.875231 4.398923 6.794179 -16.353558 0.000000 -0.000000 0.000000 4.096544 -1.718210 6.508130 3.967812 3.878706 5.770249 1.922107 -3.321863 -10.782582 0.000000 -0.000000 0.000000 -2.146671 1.149440 4.275623 1.746720 -2.918971 3.807018 1.518208 -2.013979 4.807536 3.046635 1.740632 -4.678305 2.981526 -3.572799 -0.048867 -25.713684 5.729933 1.514330 -61.395803 -5.433088 7.345272 10.882999 -23.343659 3.567091 -1.756745 -1.165884 -9.042601 24.921737 -2.995369 -0.940320 60.974403 2.129185 9.965071 -14.362200 21.642642 -5.105319 7.099237 -0.951045 -10.329659 
1.159182 1.152364 0.991537 -85.404795 2.810620 84.791182 0.131738 -1.204615 7.899762 -2.658574 -17.345367 3.906374 4.491104 6.724357 -16.306991 0.000000 -0.000000 0.000000 4.201697 -1.652835 6.531607 3.958780 3.892563 5.650315 2.064515 -3.370705 -10.682238 0.000000 -0.000000 0.000000 -2.029316 1.055663 4.114211 1.684538 -2.918762 3.805000 1.477491 -2.019149 4.924106 3.061031 1.794879 -4.693219 3.005825 -3.521711 0.137469 -25.731363 5.486568 1.366103 -61.742182 -5.838978 7.640185 10.914357 -23.666613 3.717428 -1.842526 -1.301897 -9.280073 24.868322 -2.785412 -0.966861 61.169639 2.360432 10.157314 -14.771074 21.531886 -4.981157 6.685129 -1.440408 -10.094073 
1.159316 1.152578 0.991406 -85.508417 2.832700 84.900611 0.148289 -1.367354 7.785664 -2.664093 -17.131905 3.900875 4.571228 6.874896 -16.309165 0.000000 -0.000000 0.000000 4.271280 -1.505020 6.354363 3.955617 3.889313 5.718092 1.949170 -3.470836 -10.749243 0.000000 -0.000000 0.000000 -1.999641 1.042554 3.940999 1.706274 -2.923008 3.833051 1.442376 -2.062427 4.902948 3.089123 1.726742 -4.607285 3.049416 -3.549266 0.159087 -25.742158 5.262977 1.451693 -62.012823 -6.039017 7.870597 10.853051 -24.367334 3.930860 -2.054017 -1.118847 -9.403352 24.779258 -2.626132 -0.871839 61.322885 2.441507 10.280346 -15.212267 21.973444 -4.852587 6.452651 -2.026346 -9.859139 
1.158804 1.152880 0.991244 -85.603667 2.928109 84.906801 0.271877 -1.408058 7.827335 -2.678817 -17.065163 3.887898 4.752174 6.920402 -16.333201 0.000000 -0.000000 0.000000 4.401815 -1.496242 6.525469 3.979201 4.088426 5.443332 1.743341 -3.601770 -10.588157 0.000000 -0.000000 0.000000 -1.921565 1.029732 3.792767 1.811464 -3.002143 3.918181 1.472255 -2.132410 4.775927 3.401571 0.744813 -4.697463 2.962714 -4.067045 0.101702 -25.936205 5.021434 1.692331 -62.200816 -6.220536 7.971745 10.744754 -25.208200 4.390105 -2.493556 -0.835420 -9.441826 24.497925 -2.449791 -0.778163 61.637655 2.267889 10.384957 -15.849774 22.628619 -4.299493 6.109913 -2.824248 -9.251353 
1.158238 1.152769 0.991221 -85.694306 2.907147 84.797069 0.235687 -1.295965 7.971221 -2.659165 -17.078324 3.912504 4.824544 6.908755 -16.337375 0.000000 -0.000000 0.000000 4.343450 -1.615548 6.697113 3.990510 4.283647 5.450455 1.765630 -3.587191 -10.620498 0.000000 -0.000000 0.000000 -1.885081 1.017286 3.774045 1.823554 -3.075388 4.032383 1.451734 -2.142488 4.713937 3.613704 0.243431 -4.993137 2.779385 -4.379427 0.239634 -26.084334 4.932046 1.678564 -62.158730 -6.303312 8.032223 10.457639 -25.561974 4.781368 -2.546811 -0.635949 -9.298117 24.369057 -2.391453 -0.780126 61.695873 2.112372 10.405535 -16.089921 23.086110 -4.174367 5.822921 -3.172988 -8.927610 
1.158090 1.152918 0.990993 -85.845528 2.929334 84.864090 0.275597 -1.241283 7.844559 -2.671740 -16.985708 3.963801 4.909326 6.966698 -16.310475 0.000000 -0.000000 0.000000 4.389318 -1.569404 6.708700 3.992668 4.439468 5.293201 1.650165 -3.665385 -10.502356 0.000000 -0.000000 0.000000 -1.834656 0.982409 3.628087 1.850361 -3.113406 4.064653 1.431008 -2.124842 4.653400 3.656881 0.136280 -4.967208 2.705297 -4.401808 0.250871 -26.240979 4.969174 1.674810 -62.090872 -6.375835 8.107862 10.184084 -26.114237 5.195476 -2.591691 -0.362519 -9.065413 24.424479 -2.403258 -0.692543 61.591301 2.105846 10.469494 -16.397036 23.405091 -3.938231 5.354692 -3.757799 -8.239402 
1.157925 1.153020 0.990749 -85.985670 2.880837 84.888194 0.281200 -1.100587 7.749510 -2.775633 -17.010604 4.067858 4.955162 6.955029 -16.447307 0.000000 -0.000000 0.000000 4.315107 -1.631564 6.745997 4.033810 4.680856 5.198952 1.651715 -3.700334 -10.460611 0.000000 -0.000000 0.000000 -1.770637 0.894771 3.536029 1.795291 -3.220714 4.058362 1.357974 -2.075070 4.675959 3.661238 0.059740 -4.995753 2.696435 -4.448256 0.214760 -26.358517 4.882505 1.536057 -62.001505 -6.420635 8.114801 9.931311 -25.931634 5.496569 -2.432382 -0.398892 -8.925641 24.535678 -2.460887 -0.716117 61.454776 2.119198 10.497877 -16.638427 23.514171 -3.697902 4.754748 -4.335962 -7.584566 
1.158030 1.153483 0.990348 -86.063594 2.882282 84.905206 0.367065 -1.060919 7.635047 -2.890025 -16.975316 4.184922 4.932769 6.982968 -16.416012 0.000000 -0.000000 0.000000 4.355046 -1.600166 6.683449 4.050590 4.717550 5.224009 1.647756 -3.757031 -10.548929 0.000000 -0.000000 0.000000 -1.771333 0.816986 3.484866 1.805732 -3.275833 4.164341 1.316542 -2.107168 4.666613 3.647604 0.211627 -5.157190 2.698846 -4.443739 0.241033 -26.438708 4.893225 1.449475 -62.010450 -6.483673 8.107694 10.054546 -25.882435 5.351468 -2.374234 -0.291072 -8.874117 24.653344 -2.434844 -0.766992 61.390787 2.162126 10.561623 -16.888912 23.161744 -3.551774 4.266917 -4.890236 -7.064370 
1.158003 1.153595 0.990355 -86.230439 2.846252 84.940684 0.299621 -1.040293 7.618662 -2.842520 -16.976133 4.170738 4.968771 7.071738 -16.501255 0.000000 -0.000000 0.000000 4.313983 -1.498799 6.622447 4.085960 4.841569 5.239661 1.671982 -3.737209 -10.467032 0.000000 -0.000000 0.000000 -1.762576 0.831276 3.461812 1.791593 -3.300687 4.084753 1.311066 -2.048922 4.662670 3.781983 -0.084957 -5.121880 2.836749 -4.694162 0.119805 -26.540519 4.772254 1.496783 -61.916547 -6.504662 8.068313 10.072114 -25.442967 5.198505 -2.349732 -0.086924 -8.799223 24.727406 -2.271964 -0.671491 61.414573 2.102323 10.514871 -17.088386 22.901786 -3.760918 4.157571 -5.142743 -7.079409 
1.157233 1.154300 0.990522 -86.343878 2.978168 84.835227 0.425237 -1.046407 7.882322 -2.682923 -16.735572 4.144554 4.542231 6.839048 -16.553192 0.000000 -0.000000 0.000000 4.520248 -1.486981 6.726746 3.916698 4.723373 5.382344 1.867062 -3.465768 -10.487857 0.000000 -0.000000 0.000000 -1.706639 0.733875 3.761871 1.817178 -3.280569 3.897412 1.397950 -2.142217 4.819372 3.701484 0.433115 -5.669701 2.578604 -4.521523 0.902359 -25.978752 4.884357 1.427310 -62.499408 -6.148348 8.130168 10.163100 -25.140864 5.234520 -2.678467 -1.203588 -9.067478 24.812048 -2.479196 -0.765782 61.095558 2.745177 10.563100 -15.052819 24.742870 -4.350016 6.437263 -0.488319 -9.294151 
